<svg xmlns="http://www.w3.org/2000/svg" width="1200" height="630" viewBox="0 0 1200 630" role="img" aria-labelledby="title desc">
  <title id="title">Dramane Bako | AI for Official Statistics</title>
  <desc id="desc">Social preview image with data visualization shapes and blog title.</desc>
  <rect width="1200" height="630" fill="#f6f9fb"/>
  <path d="M0 0h1200v630H0z" fill="#f6f9fb"/>
  <circle cx="1000" cy="110" r="180" fill="#dff4ef"/>
  <circle cx="160" cy="530" r="170" fill="#f2e7d4"/>
  <g fill="none" stroke="#d9e2ea" stroke-width="2">
    <path d="M120 120h960M120 210h960M120 300h960M120 390h960M120 480h960"/>
    <path d="M220 80v470M380 80v470M540 80v470M700 80v470M860 80v470M1020 80v470"/>
  </g>
  <g fill="#0f766e">
    <rect x="225" y="345" width="70" height="135" rx="8"/>
    <rect x="385" y="275" width="70" height="205" rx="8"/>
    <rect x="545" y="220" width="70" height="260" rx="8"/>
    <rect x="705" y="300" width="70" height="180" rx="8"/>
    <rect x="865" y="170" width="70" height="310" rx="8"/>
  </g>
  <path d="M260 340c120-80 196-45 290-120 96-76 172 20 265-50 54-41 88-68 132-64" fill="none" stroke="#b7791f" stroke-width="16" stroke-linecap="round"/>
  <rect x="96" y="86" width="650" height="270" rx="20" fill="#ffffff" opacity="0.94"/>
  <text x="132" y="165" fill="#b7791f" font-family="Arial, Helvetica, sans-serif" font-size="30" font-weight="700" letter-spacing="3">AI FOR OFFICIAL STATISTICS</text>
  <text x="132" y="235" fill="#17202a" font-family="Arial, Helvetica, sans-serif" font-size="52" font-weight="700">Dramane Bako</text>
  <text x="132" y="296" fill="#5d6b78" font-family="Arial, Helvetica, sans-serif" font-size="32">Surveys, administrative data,</text>
  <text x="132" y="336" fill="#5d6b78" font-family="Arial, Helvetica, sans-serif" font-size="32">AI and official statistics</text>
</svg>
